<?xml version="1.0" encoding="UTF-8" standalone="no"?>
<svg xmlns:ffdec="https://www.free-decompiler.com/flash" xmlns:xlink="http://www.w3.org/1999/xlink" ffdec:objectType="shape" height="11.0px" width="9.95px" xmlns="http://www.w3.org/2000/svg">
  <g transform="matrix(1.0, 0.0, 0.0, 1.0, 4.5, 7.0)">
    <path d="M4.5 -4.0 L4.5 -3.0 1.5 -3.0 1.5 -4.0 4.5 -4.0" fill="#776859" fill-rule="evenodd" stroke="none"/>
    <path d="M-1.5 -4.0 L-0.5 -4.0 -0.5 -6.0 4.5 -6.0 4.5 -4.0 1.5 -4.0 1.5 -3.0 4.5 -3.0 4.5 -2.0 -0.5 -2.0 -0.5 -3.0 -1.5 -3.0 -1.5 -4.0" fill="#f0b88b" fill-rule="evenodd" stroke="none"/>
    <path d="M5.45 -1.0 L1.5 -1.0 1.5 0.0 0.5 0.0 0.5 -1.0 -0.5 -1.0 -0.5 -2.0 4.5 -2.0 4.5 -3.0 4.5 -4.0 4.5 -6.0 -0.5 -6.0 -0.5 -4.0 -1.5 -4.0 -1.5 -7.0 5.45 -7.0 5.45 -1.0 M1.5 0.0 L5.45 0.0 5.45 1.0 4.5 1.0 4.5 3.0 2.5 3.0 2.5 4.0 -4.5 4.0 -4.5 -3.0 -2.5 -3.0 -2.5 -4.0 -1.5 -4.0 -1.5 -3.0 -0.5 -3.0 -0.5 -2.0 -3.5 -2.0 -3.5 3.0 1.5 3.0 1.5 0.0" fill="#000000" fill-rule="evenodd" stroke="none"/>
    <path d="M1.5 0.0 L1.5 -1.0 5.45 -1.0 5.45 0.0 1.5 0.0" fill="#2f2f2f" fill-rule="evenodd" stroke="none"/>
    <path d="M-0.5 -2.0 L-0.5 -1.0 0.5 -1.0 0.5 0.0 1.5 0.0 1.5 3.0 -3.5 3.0 -3.5 -2.0 -0.5 -2.0" fill="#006924" fill-rule="evenodd" stroke="none"/>
  </g>
</svg>
